<?xml version="1.0" encoding="utf-8"?>
<!-- Generator: Adobe Illustrator 23.1.0, SVG Export Plug-In . SVG Version: 6.00 Build 0)  -->
<svg version="1.1" id="Layer_1" xmlns="http://www.w3.org/2000/svg" xmlns:xlink="http://www.w3.org/1999/xlink" x="0px" y="0px"
	 viewBox="0 0 167.7 167.7" style="enable-background:new 0 0 167.7 167.7;" xml:space="preserve">
<style type="text/css">
	.st0{fill:#010101;}
	.st1{fill:#FFFFFF;}
</style>
<g>
	<g>
		<path class="st0" d="M113.8,33.8c-0.4-0.3-0.8-0.7-1.2-0.9c0.5,0.5,1,0.8,1.4,1.2C114,34,113.9,33.9,113.8,33.8z"/>
	</g>
	<path class="st0" d="M84.5,164.5L84.5,164.5c-44,0-79.6-35.6-79.6-79.6v0c0-44,35.6-79.6,79.6-79.6h0c44,0,79.6,35.6,79.6,79.6v0
		C164.1,128.8,128.5,164.5,84.5,164.5z"/>
	<path class="st0" d="M114.1,34c-0.4-0.3-0.9-0.7-1.4-1.2c0.3,0.3,0.7,0.6,1.2,0.9C113.9,33.9,114,34,114.1,34z"/>
	<g>
		
			<ellipse transform="matrix(0.9239 -0.3827 0.3827 0.9239 -26.0367 38.8019)" class="st0" cx="84.5" cy="84.8" rx="71.2" ry="71.2"/>
		<path class="st1" d="M84.5,17.1c37.3,0,67.7,30.4,67.7,67.7c0,37.3-30.4,67.7-67.7,67.7c-37.3,0-67.7-30.4-67.7-67.7
			C16.8,47.5,47.2,17.1,84.5,17.1 M84.5,10.1L84.5,10.1c-41.3,0-74.7,33.4-74.7,74.7v0c0,41.3,33.4,74.7,74.7,74.7h0
			c41.3,0,74.7-33.4,74.7-74.7v0C159.2,43.6,125.8,10.1,84.5,10.1L84.5,10.1z"/>
	</g>
	<path class="st1" d="M130.2,127v0.7c0,0.7-0.6,1.3-1.3,1.3h-21c-0.7,0-1.3-0.6-1.3-1.3V127c0-0.6,0.4-1.1,0.9-1.3
		c1.2-0.4,2.1-0.7,2.6-1c0.7-0.4,1.3-0.9,1.8-1.5c0.5-0.7,0.9-1.7,1.1-3.1c0.3-1.4,0.4-3.5,0.4-6.3V97.7c0-5.5-0.3-9.7-0.9-12.6
		c-0.6-2.9-1.7-5.1-3.4-6.5c-1.7-1.4-4-2.2-7-2.2c-1.7,0-3.2,0.3-4.6,0.9c-1.4,0.6-2.9,1.6-4.7,3.1s-3.1,3-4.1,4.6
		c-0.9,1.6-1.4,3.2-1.4,5v23.6c0,2.8,0.1,4.8,0.2,6c0.1,1.2,0.4,2.2,0.9,3c0.2,0.4,0.4,0.7,0.7,1c0.1,0.1,0.3,0.2,0.4,0.3
		c1.5,0.7,3.1,0.9,4.4,0.9c0.7,0,1.3,0.6,1.3,1.3v1.6c0,0.7-0.6,1.3-1.3,1.3H68.6c-0.7,0-1.3-0.6-1.3-1.3v-1.6
		c0-0.7,0.6-1.3,1.3-1.3c9.7-0.3,9.5-7.3,9.7-12.4l-0.1-20.7c0-1.8-1.1-3.3-3.8-3.3h-3.8c0,0-0.1,0-0.1,0c-7.1,0.4-8.3,5.4-8.4,8.9
		c0,0.7-0.6,1.3-1.3,1.3h-1.6c-0.7,0-1.3-0.6-1.3-1.3V72.4c0-0.7,0.6-1.3,1.3-1.3h1.6c0.7,0,1.3,0.6,1.3,1.3c0.1,3.5,1.3,8.5,8.4,9
		c0,0,0.1,0,0.1,0H74c2.3,0,4.1-0.2,4.1-4.3V54.1c0-2.7-1.9-7.2-7-7.2L51.6,47c0,0-0.1,0-0.1,0c-7.1,0.5-8.3,6-8.4,9.6
		c0,0.7-0.6,1.3-1.3,1.3h-1.6c-0.7,0-1.3-0.6-1.3-1.3V41.9c0-0.7,0.6-1.3,1.3-1.3h56.2c0.7,0,1.3,0.6,1.3,1.3v1.6
		c0,0.7-0.6,1.3-1.3,1.3c-4.8,0.2-7.8,1.7-8.8,4.3c-0.1,0.2-0.1,0.3-0.1,0.5v26.7c0,1.1,1.3,1.8,2.2,1c2.4-2.1,4.4-3.4,5.9-4.4
		c1.9-1.3,3.8-2.3,5.7-2.9c1.9-0.7,3.9-1,6.1-1c0.3,0,0.7,0,1,0c0,0,0,0,0,0c1.8,0.1,5.5,0.6,8,2.8c0,0,0,0,0,0c0,0,0,0,0.1,0.1
		c0,0,0,0,0,0c0.2,0.2,0.4,0.3,0.6,0.5c0,0,0,0,0,0c1.3,1.1,2.4,2.4,3.2,3.9c0.9,1.6,1.5,3.5,1.9,5.7c0.4,2.2,0.6,5,0.6,8.4v23.3
		c0,3.6,0.2,6,0.5,7.3c0.3,1.3,0.9,2.3,1.7,3c0.7,0.6,2.1,1.2,4,1.8C129.8,125.9,130.2,126.4,130.2,127z"/>
</g>
</svg>
